# xmcd
#
# Track frame offsets:
# 150
# 13535
# 27182
# 44422
# 59472
# 73872
# 91875
# 104875
# 119542
# 130665
# 131565
# 148218
#
# Disc length: 2105 seconds
#
# Revision: 0
# Processed by: cddbd v1.4PL0 Copyright (c) Steve Scherf et al.
# Submitted via: Audion 3.0.2 (http://www.panic.com/audion/)
#
DISCID=b408370c
DTITLE=Bee Gees - Best of vol 1
DYEAR=1900
DGENRE=
TTITLE0=Holiday
TTITLE1=I've gotta get a message to you
TTITLE2=I can't see nobody
TTITLE3=Words
TTITLE4=I started a joke
TTITLE5=Tomorrow, tomorrow
TTITLE6=First of May
TTITLE7=Piste  8
TTITLE8=Massachusetts
TTITLE9=To love somebody every christian lion hearted
TTITLE10=Man will show you
TTITLE11=New York mining disaster
EXTD=
EXTT0=
EXTT1=
EXTT2=
EXTT3=
EXTT4=
EXTT5=
EXTT6=
EXTT7=
EXTT8=
EXTT9=
EXTT10=
EXTT11=
PLAYORDER=
